<?xml version="1.0" encoding="UTF-8"?>
<svg version="1.1" xmlns="http://www.w3.org/2000/svg" width="500" height="500">
<path d="M0 0 C3.78223621 1.35829213 7.0621912 3.31516822 10.48828125 5.3984375 C11.22296631 5.83784668 11.95765137 6.27725586 12.71459961 6.72998047 C20.43355438 11.36777413 28.0657566 16.14705919 35.67578125 20.9609375 C35.37475586 22.82397461 35.37475586 22.82397461 34.67578125 24.9609375 C32.21720504 26.65328259 29.84520711 28.09720638 27.23828125 29.5234375 C25.6722684 30.41115934 24.10719288 31.30053635 22.54296875 32.19140625 C21.7344043 32.64821777 20.92583984 33.1050293 20.09277344 33.57568359 C16.30028573 35.74927705 12.58288936 38.04056135 8.86328125 40.3359375 C3.43359955 43.67298449 -2.00656174 46.98880379 -7.49169922 50.23413086 C-9.14122271 51.22538534 -10.77707965 52.23971571 -12.39892578 53.27563477 C-17.12299146 56.25763818 -21.62536011 58.51101223 -26.890625 60.40234375 C-37.30853603 64.58498304 -37.30853603 64.58498304 -44.32421875 72.9609375 C-48.32954934 87.80497652 -46.43682792 104.79985098 -45.32421875 119.9609375 C-46.64421875 119.9609375 -47.96421875 119.9609375 -49.32421875 119.9609375 C-49.32421875 119.3009375 -49.32421875 118.6409375 -49.32421875 117.9609375 C-49.87980469 117.86167969 -50.43539062 117.76242187 -51.0078125 117.66015625 C-53.85879207 116.79957388 -55.90967883 115.42601347 -58.38671875 113.7734375 C-62.1902159 111.29355736 -66.01005758 108.98167503 -70.01171875 106.8359375 C-82.82421875 99.9609375 -82.82421875 99.9609375 -84.32421875 96.9609375 C-84.44895274 95.47690103 -84.51433218 93.98764895 -84.54882812 92.4987793 C-84.57134644 91.57409348 -84.59386475 90.64940765 -84.61706543 89.69670105 C-84.68798819 85.46593319 -84.74557563 81.23534207 -84.78417969 77.00415039 C-84.81081091 74.77216157 -84.85176228 72.54029639 -84.90722656 70.30883789 C-84.98625827 67.09210443 -85.0194688 63.87771747 -85.04296875 60.66015625 C-85.07596069 59.66416916 -85.10895264 58.66818207 -85.14294434 57.64201355 C-85.12336581 50.86568862 -85.12336581 50.86568862 -82.8009491 48.2363739 C-81.02476467 46.94825482 -79.29178794 45.92518814 -77.32421875 44.9609375 C-76.14279297 44.27837891 -76.14279297 44.27837891 -74.9375 43.58203125 C-73.79861328 42.99615234 -73.79861328 42.99615234 -72.63671875 42.3984375 C-64.57973352 38.09477463 -56.81533157 33.29815008 -49 28.57519531 C-45.48735026 26.45606757 -41.96706234 24.34981909 -38.44677734 22.2434082 C-32.03518085 18.40537738 -25.63123299 14.55597638 -19.26171875 10.6484375 C-18.26011719 10.03484375 -17.25851563 9.42125 -16.2265625 8.7890625 C-14.21647201 7.52294898 -12.23059044 6.2178848 -10.265625 4.8828125 C-9.29496094 4.22796875 -8.32429688 3.573125 -7.32421875 2.8984375 C-6.05578125 2.01478516 -6.05578125 2.01478516 -4.76171875 1.11328125 C-2.32421875 -0.0390625 -2.32421875 -0.0390625 0 0 Z " fill="#E19341" transform="translate(250.32421875,149.0390625)"/>
<path d="M0 0 C4.2817074 1.07042685 7.4793627 2.908839 11.1875 5.1875 C12.19224365 5.79706543 12.19224365 5.79706543 13.21728516 6.41894531 C17.53479419 9.05388801 21.75684359 11.80306203 25.93359375 14.65625 C28.91038672 16.59200951 32.01522364 18.26202309 35.15234375 19.921875 C37 21 37 21 39 23 C39.28761292 24.99116516 39.28761292 24.99116516 39.33813477 27.4621582 C39.36057755 28.38684402 39.38302032 29.31152985 39.40614319 30.26423645 C39.4235984 31.76732613 39.4235984 31.76732613 39.44140625 33.30078125 C39.46206398 34.84357002 39.46206398 34.84357002 39.48313904 36.41752625 C39.50644343 38.5972249 39.52369229 40.77699532 39.53540039 42.95678711 C39.56231486 46.28957477 39.63719167 49.61918485 39.71289062 52.95117188 C39.72954837 55.06768694 39.74331464 57.18422714 39.75390625 59.30078125 C39.78376114 60.29676834 39.81361603 61.29275543 39.84437561 62.31892395 C39.80137468 69.09659402 39.80137468 69.09659402 37.46777344 71.72731018 C35.69463455 73.0116745 33.96236414 74.03586114 32 75 C30.91332031 75.64388672 30.91332031 75.64388672 29.8046875 76.30078125 C29.16789062 76.63464844 28.53109375 76.96851563 27.875 77.3125 C23.21155098 79.84563593 18.7231638 82.61579488 14.21484375 85.4140625 C7.44248043 89.59249909 0.59275372 93.64530529 -6.2421875 97.72021484 C-12.49945729 101.43821665 -12.49945729 101.43821665 -18.56640625 105.453125 C-21 107 -21 107 -24 107 C-24 107.66 -24 108.32 -24 109 C-24.70125 109.37511719 -25.4025 109.75023437 -26.125 110.13671875 C-30.66778999 112.58710955 -35.10865061 115.02788241 -39.375 117.9375 C-41.96518356 119.59542936 -42.64721067 120.01567953 -45.8125 119.875 C-46.534375 119.58625 -47.25625 119.2975 -48 119 C-48.99 118.67 -49.98 118.34 -51 118 C-51 117.34 -51 116.68 -51 116 C-51.65226562 115.94457031 -52.30453125 115.88914062 -52.9765625 115.83203125 C-57.33844855 114.63166726 -60.65128858 112.2036092 -64.375 109.6875 C-69.49722806 106.27117298 -74.61566879 102.99050585 -80 100 C-80 98.68 -80 97.36 -80 96 C-78.3034668 94.44433594 -78.3034668 94.44433594 -75.94921875 92.984375 C-74.68368164 92.19160156 -74.68368164 92.19160156 -73.39257812 91.3828125 C-72.49990234 90.84398437 -71.60722656 90.30515625 -70.6875 89.75 C-69.80642578 89.19570313 -68.92535156 88.64140625 -68.01757812 88.0703125 C-61.42587746 84 -61.42587746 84 -58 84 C-58 83.34 -58 82.68 -58 82 C-57.01 82 -56.02 82 -55 82 C-55 81.34 -55 80.68 -55 80 C-54.44957031 79.71769531 -53.89914063 79.43539062 -53.33203125 79.14453125 C-45.39781022 74.94985005 -37.83420305 70.2214659 -30.26293945 65.4074707 C-29.383396 64.85406006 -28.50385254 64.30064941 -27.59765625 63.73046875 C-26.41441772 62.97866333 -26.41441772 62.97866333 -25.20727539 62.21166992 C-23.11098535 61.06092471 -21.33660508 60.44933432 -19 60 C-19 59.34 -19 58.68 -19 58 C-18.443125 57.69707031 -17.88625 57.39414062 -17.3125 57.08203125 C-12.63756562 54.51555545 -8.08758079 51.84538133 -3.62890625 48.91796875 C-2 48 -2 48 0 48 C0 32.16 0 16.32 0 0 Z " fill="#DEDFDD" transform="translate(295,231)"/>
<path d="M0 0 C3.56272308 0.80518862 6.15846845 2.12805537 9.296875 4.02734375 C10.84761719 4.96151123 10.84761719 4.96151123 12.4296875 5.91455078 C14.07324219 6.91591064 14.07324219 6.91591064 15.75 7.9375 C16.87148437 8.61538574 17.99296875 9.29327148 19.1484375 9.99169922 C26.11634816 14.21349222 33.04263408 18.49768972 39.93310547 22.84448242 C43.87038741 25.32095585 47.85397431 27.65352671 51.94140625 29.87109375 C60.26625262 34.43633208 68.1433206 39.68121704 76 45 C74.49402323 49.25438437 71.83252242 50.59420614 68 52.75 C66.9275 53.36359375 65.855 53.9771875 64.75 54.609375 C62 56 62 56 60 56 C60 56.66 60 57.32 60 58 C59.29875 58.37511719 58.5975 58.75023437 57.875 59.13671875 C52.65880774 61.95034419 47.598286 64.79343516 42.75390625 68.21484375 C40.41931647 69.25994964 39.4090711 68.76149441 37 68 C34.43525223 66.61136812 31.93624208 65.1864587 29.4375 63.6875 C28.7053125 63.25252197 27.973125 62.81754395 27.21875 62.36938477 C2.7231334 47.7231334 2.7231334 47.7231334 0 45 C-0.0928726 43.58774954 -0.11746772 42.17091066 -0.11352539 40.75561523 C-0.11344986 39.85475693 -0.11337433 38.95389862 -0.11329651 38.02574158 C-0.10813522 37.04658279 -0.10297394 36.06742401 -0.09765625 35.05859375 C-0.0962413 34.06118668 -0.09482635 33.0637796 -0.09336853 32.03614807 C-0.08775114 28.83656876 -0.07519571 25.63705831 -0.0625 22.4375 C-0.05748724 20.27408955 -0.05292395 18.11067801 -0.04882812 15.94726562 C-0.03777607 10.63148675 -0.02102104 5.31574829 0 0 Z " fill="#DD8E3F" transform="translate(166,256)"/>
<path d="M0 0 C3.85301762 1.58126578 7.20261945 3.62592657 10.66796875 5.921875 C12.09270694 6.84016202 13.51848038 7.75684491 14.9453125 8.671875 C15.62319824 9.10886719 16.30108398 9.54585937 16.99951172 9.99609375 C19.84867745 11.80109008 22.78841188 13.41265507 25.75390625 15.015625 C36.74803073 21.06443698 36.74803073 21.06443698 38.85546875 23.171875 C38.94825205 24.55347615 38.97293918 25.93975538 38.96899414 27.32446289 C38.96888084 28.64571922 38.96888084 28.64571922 38.96876526 29.9936676 C38.96360397 30.95095261 38.95844269 31.90823761 38.953125 32.89453125 C38.95171005 33.86974228 38.9502951 34.84495331 38.94883728 35.84971619 C38.94322008 38.97796643 38.93066468 42.10614623 38.91796875 45.234375 C38.91295597 47.34960834 38.90839268 49.46484281 38.90429688 51.58007812 C38.89324506 56.77736796 38.87649021 61.97461645 38.85546875 67.171875 C37.37046875 67.666875 37.37046875 67.666875 35.85546875 68.171875 C33.18426741 66.82568633 30.70611931 65.42568442 28.16796875 63.859375 C27.03935425 63.17911255 27.03935425 63.17911255 25.88793945 62.48510742 C20.06325565 58.95914454 14.29045725 55.34718901 8.53100586 51.71582031 C4.6404738 49.2665656 0.71698251 46.90096039 -3.26953125 44.609375 C-7.6767942 42.0738533 -11.95090369 39.3868398 -16.20703125 36.609375 C-21.32611671 33.26995233 -26.52424737 30.21193443 -31.9375 27.36328125 C-34.14453125 26.171875 -34.14453125 26.171875 -37.14453125 24.171875 C-36.94140625 22.35546875 -36.94140625 22.35546875 -36.14453125 20.171875 C-34.16015625 18.70703125 -34.16015625 18.70703125 -31.39453125 17.234375 C-27.11688851 14.88940217 -22.97897407 12.45110454 -18.88671875 9.79296875 C-17.96213867 9.19798584 -17.03755859 8.60300293 -16.08496094 7.98999023 C-14.22604806 6.78956323 -12.37489634 5.57702098 -10.53222656 4.35180664 C-4.06765662 0.22233154 -4.06765662 0.22233154 0 0 Z " fill="#DD8D3F" transform="translate(295.14453125,175.828125)"/>
<path d="M0 0 C0.33 0 0.66 0 1 0 C1.05534912 0.92337158 1.11069824 1.84674316 1.16772461 2.7980957 C1.37510281 6.22555454 1.58610242 9.65275052 1.79956055 13.07983398 C1.89118284 14.56281784 1.98136294 16.04589154 2.07006836 17.52905273 C2.19786106 19.66154873 2.33084579 21.79366729 2.46484375 23.92578125 C2.543396 25.20880127 2.62194824 26.49182129 2.70288086 27.8137207 C2.88027433 31.01878903 2.88027433 31.01878903 4 34 C3.91478259 35.89952346 3.76270916 37.79663573 3.5625 39.6875 C3.46066406 40.68136719 3.35882813 41.67523438 3.25390625 42.69921875 C3.17011719 43.45847656 3.08632812 44.21773437 3 45 C3.99 45.33 4.98 45.66 6 46 C6.33 46.99 6.66 47.98 7 49 C10.3 49.33 13.6 49.66 17 50 C17.309375 51.11375 17.61875 52.2275 17.9375 53.375 C18.65970328 55.35503671 18.65970328 55.35503671 20 57 C22.94237867 58.21555714 25.84371486 58.67576945 29 59 C29.33 58.34 29.66 57.68 30 57 C30.33 57.66 30.66 58.32 31 59 C30.67 59.99 30.34 60.98 30 62 C30.66 62.33 31.32 62.66 32 63 C32 63.33 32 63.66 32 64 C34.97 64.495 34.97 64.495 38 65 C38 50.81 38 36.62 38 22 C38.66 22.33 39.32 22.66 40 23 C39.67 38.51 39.34 54.02 39 70 C37.68 70 36.36 70 35 70 C35 69.34 35 68.68 35 68 C34.44441406 67.90074219 33.88882813 67.80148437 33.31640625 67.69921875 C30.46542668 66.83863638 28.41453992 65.46507597 25.9375 63.8125 C22.13400285 61.33261986 18.31416117 59.02073753 14.3125 56.875 C1.5 50 1.5 50 0 47 C-0.08977728 45.48835608 -0.11757433 43.97279821 -0.11352539 42.45849609 C-0.11344986 41.51767181 -0.11337433 40.57684753 -0.11329651 39.60751343 C-0.10555458 38.08089584 -0.10555458 38.08089584 -0.09765625 36.5234375 C-0.0962413 35.48305328 -0.09482635 34.44266907 -0.09336853 33.37075806 C-0.08775866 30.03880979 -0.07520447 26.70692805 -0.0625 23.375 C-0.05748627 21.11979264 -0.05292314 18.86458422 -0.04882812 16.609375 C-0.03778603 11.07289386 -0.02103827 5.53645168 0 0 Z " fill="#98673A" transform="translate(166,199)"/>
<path d="M0 0 C3.96496009 1.63231373 7.43030533 3.76006193 11 6.12109375 C12.39747406 7.02752876 13.79588269 7.93252487 15.1953125 8.8359375 C15.80648926 9.23804443 16.41766602 9.64015137 17.04736328 10.05444336 C18.93980857 11.22363377 20.87209624 12.21805601 22.875 13.18359375 C22.215 13.51359375 21.555 13.84359375 20.875 14.18359375 C18.2734375 13.1875 18.2734375 13.1875 15.25 11.74609375 C14.24710937 11.27300781 13.24421875 10.79992187 12.2109375 10.3125 C11.44007813 9.93996094 10.66921875 9.56742188 9.875 9.18359375 C9.875 8.52359375 9.875 7.86359375 9.875 7.18359375 C9.33875 7.05984375 8.8025 6.93609375 8.25 6.80859375 C5.4111714 6.06153359 2.65276798 5.13056011 -0.125 4.18359375 C-0.125 4.84359375 -0.125 5.50359375 -0.125 6.18359375 C-1.65625 7.47265625 -1.65625 7.47265625 -3.625 8.80859375 C-4.59953125 9.47761719 -4.59953125 9.47761719 -5.59375 10.16015625 C-6.0990625 10.49789062 -6.604375 10.835625 -7.125 11.18359375 C-7.125 10.19359375 -7.125 9.20359375 -7.125 8.18359375 C-9.765 8.51359375 -12.405 8.84359375 -15.125 9.18359375 C-15.455 10.83359375 -15.785 12.48359375 -16.125 14.18359375 C-18.105 14.18359375 -20.085 14.18359375 -22.125 14.18359375 C-22.351875 15.27671875 -22.57875 16.36984375 -22.8125 17.49609375 C-24.125 21.18359375 -24.125 21.18359375 -26.75 23.12109375 C-27.53375 23.47171875 -28.3175 23.82234375 -29.125 24.18359375 C-27.805 24.84359375 -26.485 25.50359375 -25.125 26.18359375 C-25.125 27.17359375 -25.125 28.16359375 -25.125 29.18359375 C-22.485 29.84359375 -19.845 30.50359375 -17.125 31.18359375 C-17.125 31.84359375 -17.125 32.50359375 -17.125 33.18359375 C-16.135 33.18359375 -15.145 33.18359375 -14.125 33.18359375 C-14.125 33.84359375 -14.125 34.50359375 -14.125 35.18359375 C-13.465 35.18359375 -12.805 35.18359375 -12.125 35.18359375 C-11.795 36.50359375 -11.465 37.82359375 -11.125 39.18359375 C-14.94530671 37.91015818 -17.80608957 36.00539511 -21.0234375 33.6171875 C-24.41725797 31.30207205 -28.04436244 29.43577481 -31.671875 27.515625 C-34.125 26.18359375 -34.125 26.18359375 -37.125 24.18359375 C-36.921875 22.3671875 -36.921875 22.3671875 -36.125 20.18359375 C-34.140625 18.71875 -34.140625 18.71875 -31.375 17.24609375 C-27.09735726 14.90112092 -22.95944282 12.46282329 -18.8671875 9.8046875 C-17.94260742 9.20970459 -17.01802734 8.61472168 -16.06542969 8.00170898 C-14.20651681 6.80128198 -12.35536509 5.58873973 -10.51269531 4.36352539 C-4.05463717 0.23820993 -4.05463717 0.23820993 0 0 Z " fill="#95683E" transform="translate(295.125,175.81640625)"/>
<path d="M0 0 C0.66 0 1.32 0 2 0 C2.515625 1.051875 3.03125 2.10375 3.5625 3.1875 C5.93741111 7.42290105 9.01816468 9.31991853 13 12 C13 12.66 13 13.32 13 14 C11.9275 14.515625 10.855 15.03125 9.75 15.5625 C5.53003795 17.93355373 4.06854018 20.69743642 2 25 C1.01 25 0.02 25 -1 25 C-1.391875 24.0925 -1.78375 23.185 -2.1875 22.25 C-4.64004214 17.85233823 -7.22707358 15.59097547 -12 14 C-10.74874616 10.24623848 -9.4347596 9.75926711 -6 8 C-5.34 8 -4.68 8 -4 8 C-3.71125 7.236875 -3.4225 6.47375 -3.125 5.6875 C-2 3 -2 3 0 0 Z " fill="#96989A" transform="translate(472,460)"/>
<path d="M0 0 C3.09199482 0.7187585 5.46179625 1.6607133 8.1875 3.3125 C9.22970703 3.92544922 9.22970703 3.92544922 10.29296875 4.55078125 C12.32506306 6.27596886 12.62925496 7.40478472 13 10 C13.99 10 14.98 10 16 10 C15.67 11.98 15.34 13.96 15 16 C13.35 15.67 11.7 15.34 10 15 C10 12.36 10 9.72 10 7 C8.02 7.33 6.04 7.66 4 8 C4.00523682 8.77601563 4.01047363 9.55203125 4.01586914 10.3515625 C4.03678264 13.90103328 4.04970568 17.45049104 4.0625 21 C4.07087891 22.22074219 4.07925781 23.44148438 4.08789062 24.69921875 C4.10464844 30.89960932 3.97272146 36.8726207 3 43 C5.15811388 42.05270463 5.15811388 42.05270463 7 40 C7.99 40.66 8.98 41.32 10 42 C9.505 44.475 9.505 44.475 9 47 C5.625 47.125 5.625 47.125 2 47 C0 45 0 45 -0.24050903 43.05111694 C-0.23606781 42.256138 -0.23162659 41.46115906 -0.22705078 40.64208984 C-0.22689972 39.74130707 -0.22674866 38.84052429 -0.22659302 37.91244507 C-0.21627045 36.93844757 -0.20594788 35.96445007 -0.1953125 34.9609375 C-0.1924826 33.96494537 -0.18965271 32.96895325 -0.18673706 31.94277954 C-0.1755184 28.75339882 -0.15041081 25.56429622 -0.125 22.375 C-0.11497238 20.21614988 -0.10584615 18.05729537 -0.09765625 15.8984375 C-0.07557361 10.59886301 -0.04207958 5.29945137 0 0 Z " fill="#E69F52" transform="translate(166,256)"/>
<path d="M0 0 C3.26107863 0.62011562 5.36983528 1.76992008 8.0625 3.6875 C11.48772772 6.04622353 14.95172513 8.11217799 18.625 10.0625 C23.03681357 12.41422622 27.01349018 14.98797036 31 18 C29.49402323 22.25438437 26.83252242 23.59420614 23 25.75 C21.9275 26.36359375 20.855 26.9771875 19.75 27.609375 C17 29 17 29 15 29 C15 29.66 15 30.32 15 31 C14.29875 31.37511719 13.5975 31.75023437 12.875 32.13671875 C7.65880774 34.95034419 2.598286 37.79343516 -2.24609375 41.21484375 C-4 42 -4 42 -5.95703125 41.7890625 C-8.25948788 40.89977715 -10.18115679 39.78224809 -12.25 38.4375 C-12.95640625 37.98246094 -13.6628125 37.52742188 -14.390625 37.05859375 C-15.18726563 36.53458984 -15.18726563 36.53458984 -16 36 C-11.41201223 34.46728727 -9.22055258 35.97088818 -5 38 C-4.505 37.566875 -4.01 37.13375 -3.5 36.6875 C-0.83004923 34.88528323 1.82194185 34.00895031 4.84765625 32.9609375 C8.00065275 31.55324759 10.4448681 29.45507202 13.04296875 27.20703125 C15.49824496 25.69269921 17.16691792 25.77981227 20 26 C20 25.34 20 24.68 20 24 C20.66 24 21.32 24 22 24 C22 23.34 22 22.68 22 22 C23.32 21.67 24.64 21.34 26 21 C25.505 19.515 25.505 19.515 25 18 C24.01 18.66 23.02 19.32 22 20 C21.87625 19.195625 21.7525 18.39125 21.625 17.5625 C21.41875 16.716875 21.2125 15.87125 21 15 C20.34 14.67 19.68 14.34 19 14 C19 13.34 19 12.68 19 12 C18.113125 12.185625 17.22625 12.37125 16.3125 12.5625 C13.14821189 12.98042484 11.05160358 12.80777742 8 12 C8.66 11.01 9.32 10.02 10 9 C9.36020151 6.96758273 9.36020151 6.96758273 8 5 C5.55936559 4.32852082 5.55936559 4.32852082 3 4 C2.01 3.34 1.02 2.68 0 2 C0 1.34 0 0.68 0 0 Z " fill="#A7743E" transform="translate(211,283)"/>
<path d="M0 0 C1.60568666 0.28317926 3.20952047 0.57687791 4.8125 0.875 C6.15248047 1.11863281 6.15248047 1.11863281 7.51953125 1.3671875 C10 2 10 2 13 4 C12.71006344 6.80272011 12.21330565 7.81421766 10.0625 9.6875 C5.78934418 11.51885249 1.60788645 11.74052678 -3 12 C-3.33 13.32 -3.66 14.64 -4 16 C-5.32 15.34 -6.64 14.68 -8 14 C-6.4375 12 -6.4375 12 -4 10 C-0.25 9.75 -0.25 9.75 3 10 C3.33 8.68 3.66 7.36 4 6 C2.35 6.66 0.7 7.32 -1 8 C-1.08226668 4.95613276 -0.97608217 2.92824652 0 0 Z " fill="#E59D4E" transform="translate(273,166)"/>
<path d="M0 0 C2.82676941 1.47217055 5.46830962 3.18033837 8.125 4.9375 C9.52247406 5.84393501 10.92088269 6.74893112 12.3203125 7.65234375 C12.93148926 8.05445068 13.54266602 8.45655762 14.17236328 8.87084961 C16.06480857 10.04004002 17.99709624 11.03446226 20 12 C19.34 12.33 18.68 12.66 18 13 C15.3984375 12.00390625 15.3984375 12.00390625 12.375 10.5625 C11.37210937 10.08941406 10.36921875 9.61632812 9.3359375 9.12890625 C8.56507813 8.75636719 7.79421875 8.38382813 7 8 C7 7.34 7 6.68 7 6 C6.46375 5.87625 5.9275 5.7525 5.375 5.625 C2.5361714 4.87793984 -0.22223202 3.94696636 -3 3 C-3 3.66 -3 4.32 -3 5 C-4.53125 6.2890625 -4.53125 6.2890625 -6.5 7.625 C-7.1496875 8.07101563 -7.799375 8.51703125 -8.46875 8.9765625 C-9.22671875 9.48316406 -9.22671875 9.48316406 -10 10 C-10 9.01 -10 8.02 -10 7 C-11.32 7 -12.64 7 -14 7 C-14 6.01 -14 5.02 -14 4 C-12.4609375 2.578125 -12.4609375 2.578125 -10.375 1.25 C-9.70210938 0.80140625 -9.02921875 0.3528125 -8.3359375 -0.109375 C-5.05041074 -1.36205075 -3.3803821 -0.99206866 0 0 Z " fill="#AF7B3E" transform="translate(298,177)"/>
<path d="M0 0 C1.32 0.33 2.64 0.66 4 1 C3.1028125 1.53367188 2.205625 2.06734375 1.28125 2.6171875 C0.02060608 3.36941095 -1.23979069 4.12204867 -2.5 4.875 C-3.49713013 5.47042603 -3.49713013 5.47042603 -4.5144043 6.07788086 C-8.19814157 8.28726304 -11.85783763 10.52818279 -15.48828125 12.82421875 C-16.57302734 13.50991943 -16.57302734 13.50991943 -17.6796875 14.20947266 C-19.08714239 15.10234296 -20.49215356 15.99907859 -21.89453125 16.89990234 C-26.78177301 20 -26.78177301 20 -29 20 C-28.67 18.68 -28.34 17.36 -28 16 C-27.34 16 -26.68 16 -26 16 C-25.67 15.01 -25.34 14.02 -25 13 C-23.02 12.67 -21.04 12.34 -19 12 C-19 11.34 -19 10.68 -19 10 C-17.68 10 -16.36 10 -15 10 C-15.33 8.35 -15.66 6.7 -16 5 C-14.68 5 -13.36 5 -12 5 C-11.67 4.34 -11.34 3.68 -11 3 C-9.7934375 3.0309375 -9.7934375 3.0309375 -8.5625 3.0625 C-6.06645115 3.29633621 -6.06645115 3.29633621 -5 2 C-3.33382885 1.95936168 -1.66611905 1.957279 0 2 C0 1.34 0 0.68 0 0 Z " fill="#C68E50" transform="translate(241,197)"/>
<path d="M0 0 C4.38762753 1.09690688 7.14499723 2.70182527 11 5 C8 6 8 6 5 5 C5 4.34 5 3.68 5 3 C4.01 3 3.02 3 2 3 C2.11818531 8.78423996 2.2424294 14.56830583 2.37231445 20.35229492 C2.41565241 22.32035779 2.45732832 24.28845798 2.49731445 26.2565918 C2.55504445 29.0839361 2.61873116 31.91109271 2.68359375 34.73828125 C2.70030624 35.61962234 2.71701874 36.50096344 2.73423767 37.40901184 C2.75418289 38.22963608 2.77412811 39.05026031 2.79467773 39.89575195 C2.81799416 40.97830009 2.81799416 40.97830009 2.84178162 42.0827179 C2.94195257 44.22108144 2.94195257 44.22108144 4 47 C2.68 46.34 1.36 45.68 0 45 C0 30.15 0 15.3 0 0 Z " fill="#AA7B4C" transform="translate(166,256)"/>
<path d="M0 0 C2.4375 0.375 2.4375 0.375 5 1 C6.62630024 4.25260047 6.14172565 7.82925829 6.1328125 11.40234375 C6.13376923 12.23584854 6.13472595 13.06935333 6.13571167 13.92811584 C6.13639275 15.69255651 6.13454348 17.45699968 6.13037109 19.22143555 C6.12502853 21.92307166 6.13031503 24.624541 6.13671875 27.32617188 C6.13605782 29.03906287 6.13477636 30.75195376 6.1328125 32.46484375 C6.13483673 33.2742894 6.13686096 34.08373505 6.13894653 34.91770935 C6.12522172 38.20116306 6.04563654 40.86309037 5 44 C4.34 43.67 3.68 43.34 3 43 C3.01571045 41.48647949 3.01571045 41.48647949 3.03173828 39.94238281 C3.06798497 36.19274453 3.09091743 32.4431217 3.10986328 28.69335938 C3.11991023 27.07158808 3.13355015 25.44983484 3.15087891 23.828125 C3.17518493 21.49474626 3.18649613 19.1616074 3.1953125 16.828125 C3.20563507 16.10506165 3.21595764 15.38199829 3.22659302 14.63702393 C3.22741782 10.92201961 3.06235471 8.15418955 1 5 C1.66 4.01 2.32 3.02 3 2 C1.35 2.33 -0.3 2.66 -2 3 C-1.34 2.01 -0.68 1.02 0 0 Z " fill="#E49E59" transform="translate(327,197)"/>
<path d="M0 0 C1.60781893 0.7631861 3.21113138 1.53587058 4.8125 2.3125 C5.70582031 2.74175781 6.59914063 3.17101562 7.51953125 3.61328125 C9.89599182 4.9418537 11.31123376 5.89343202 13 8 C13.36076355 10.14506531 13.36076355 10.14506531 13.34057617 12.6550293 C13.34034958 13.59577805 13.34012299 14.53652679 13.33988953 15.50578308 C13.32440567 16.51836685 13.30892181 17.53095062 13.29296875 18.57421875 C13.28872391 19.61318802 13.28447906 20.65215729 13.28010559 21.72261047 C13.26329849 25.04450276 13.22564196 28.36579075 13.1875 31.6875 C13.17245582 33.93814229 13.15876695 36.18879407 13.14648438 38.43945312 C13.11338836 43.95984197 13.06316869 49.47987782 13 55 C12.67 55 12.34 55 12 55 C11.67 40.15 11.34 25.3 11 10 C8.69 10 6.38 10 4 10 C3 7 3 7 4 4 C2.68 4 1.36 4 0 4 C0 2.68 0 1.36 0 0 Z " fill="#949593" transform="translate(321,246)"/>
<path d="M0 0 C0.66 0.33 1.32 0.66 2 1 C1.67 2.32 1.34 3.64 1 5 C0.34 5 -0.32 5 -1 5 C-1.928125 5.9590625 -1.928125 5.9590625 -2.875 6.9375 C-5.03520783 9.03417231 -6.08776721 9.58396674 -9 10 C-8.67 11.32 -8.34 12.64 -8 14 C-8.99 14.33 -9.98 14.66 -11 15 C-10.67 15.66 -10.34 16.32 -10 17 C-14.71346154 15.51153846 -14.71346154 15.51153846 -16.1640625 12.921875 C-16.43992188 12.28765625 -16.71578125 11.6534375 -17 11 C-14.00946277 8.98554089 -11.00728409 6.98936258 -8 5 C-7.23816406 4.48953125 -6.47632813 3.9790625 -5.69140625 3.453125 C-4.98886719 2.99421875 -4.28632813 2.5353125 -3.5625 2.0625 C-2.92441406 1.64097656 -2.28632813 1.21945312 -1.62890625 0.78515625 C-0.82259766 0.39650391 -0.82259766 0.39650391 0 0 Z " fill="#D8D9D7" transform="translate(231,317)"/>
<path d="M0 0 C-0.66 0.66 -1.32 1.32 -2 2 C-1.01 2.66 -0.02 3.32 1 4 C0.36191406 4.19335938 -0.27617187 4.38671875 -0.93359375 4.5859375 C-1.75988281 4.84632813 -2.58617187 5.10671875 -3.4375 5.375 C-4.67306641 5.75785156 -4.67306641 5.75785156 -5.93359375 6.1484375 C-8.17798016 6.80882227 -8.17798016 6.80882227 -9 9 C-9.07175566 10.36676585 -9.08392668 11.73698833 -9.0625 13.10546875 C-9.05476562 13.92466797 -9.04703125 14.74386719 -9.0390625 15.58789062 C-9.01331425 17.30143673 -8.98727935 19.01497855 -8.9609375 20.72851562 C-8.91520565 25.61039101 -9.1663889 30.18719841 -10 35 C-10.33 35 -10.66 35 -11 35 C-11.46059409 31.33992197 -11.73885465 27.67942106 -12 24 C-12.06880371 23.24460938 -12.13760742 22.48921875 -12.20849609 21.7109375 C-13.4798915 6.77426414 -13.4798915 6.77426414 -9.83984375 2.41015625 C-3.24514563 -1.62257282 -3.24514563 -1.62257282 0 0 Z " fill="#C58B4B" transform="translate(179,193)"/>
<path d="M0 0 C0 0.66 0 1.32 0 2 C-1.32 2.33 -2.64 2.66 -4 3 C-4.33 4.65 -4.66 6.3 -5 8 C-6.98 8 -8.96 8 -11 8 C-11.226875 9.093125 -11.45375 10.18625 -11.6875 11.3125 C-13.17913222 15.50327624 -14.16415357 16.08207678 -18 18 C-18 18.66 -18 19.32 -18 20 C-18.66 20 -19.32 20 -20 20 C-20.91967863 17.07374981 -21.21969053 15.52725727 -20.0234375 12.65625 C-17.22783396 8.98634574 -13.86290045 7.03024563 -9.9375 4.6875 C-9.20466797 4.23310547 -8.47183594 3.77871094 -7.71679688 3.31054688 C-2.29546523 0 -2.29546523 0 0 0 Z " fill="#9B693E" transform="translate(284,182)"/>
<path d="M0 0 C3.26107863 0.62011562 5.36983528 1.76992008 8.0625 3.6875 C12.45251403 6.73348311 17.02147972 9.15222753 21.8125 11.5078125 C24 13 24 13 24.90234375 15.0703125 C25 17 25 17 23.5625 18.75 C23.046875 19.1625 22.53125 19.575 22 20 C21.87625 19.195625 21.7525 18.39125 21.625 17.5625 C21.41875 16.716875 21.2125 15.87125 21 15 C20.34 14.67 19.68 14.34 19 14 C19 13.34 19 12.68 19 12 C17.6696875 12.2784375 17.6696875 12.2784375 16.3125 12.5625 C13.14821189 12.98042484 11.05160358 12.80777742 8 12 C8.66 11.01 9.32 10.02 10 9 C9.36020151 6.96758273 9.36020151 6.96758273 8 5 C5.55936559 4.32852082 5.55936559 4.32852082 3 4 C2.01 3.34 1.02 2.68 0 2 C0 1.34 0 0.68 0 0 Z " fill="#B57539" transform="translate(211,283)"/>
<path d="M0 0 C4.38762753 1.09690688 7.14499723 2.70182527 11 5 C9.8125 6.5 9.8125 6.5 8 8 C5.375 8.125 5.375 8.125 3 8 C1.11368457 9.88631543 1.75734708 13.14200693 1.68359375 15.66015625 C1.66281265 16.32462265 1.64203156 16.98908905 1.62062073 17.6736908 C1.55506342 19.80318543 1.49621215 21.93280668 1.4375 24.0625 C1.39432061 25.50326847 1.35070651 26.94402399 1.30664062 28.38476562 C1.19937607 31.9230404 1.09812629 35.46145869 1 39 C0.67 39 0.34 39 0 39 C0 26.13 0 13.26 0 0 Z " fill="#A1A3A2" transform="translate(295,231)"/>
<path d="M0 0 C-4.3145341 4.90466794 -7.40073772 7.68014754 -14 9 C-16.00361307 9.65572791 -18.00491933 10.31875294 -20 11 C-18.66359373 6.58535458 -17.11417688 4.99909082 -13.125 2.75 C-12.26132813 2.24984375 -11.39765625 1.7496875 -10.5078125 1.234375 C-6.57925822 -0.69930592 -4.22548527 -1.35819169 0 0 Z " fill="#E8A052" transform="translate(238,160)"/>
<path d="M0 0 C-2.65790439 3.21746321 -3.41165038 3.08233008 -8 4 C-8 18.19 -8 32.38 -8 47 C-8.33 47 -8.66 47 -9 47 C-10.12914369 38.57355452 -9.99037899 30.29950373 -9.703125 21.82910156 C-9.62424177 19.47739523 -9.55755119 17.12555463 -9.4921875 14.7734375 C-9.44602544 13.27601952 -9.39917605 11.77862253 -9.3515625 10.28125 C-9.33171295 9.57923462 -9.3118634 8.87721924 -9.29141235 8.15393066 C-9.11543586 3.23087173 -9.11543586 3.23087173 -8 1 C-5.07175348 0.02391783 -3.04386724 -0.08226668 0 0 Z " fill="#C1864B" transform="translate(212,217)"/>
<path d="M0 0 C0.66 0.33 1.32 0.66 2 1 C1.67 16.51 1.34 32.02 1 48 C-0.32 48 -1.64 48 -3 48 C-3 47.34 -3 46.68 -3 46 C-2.34 46 -1.68 46 -1 46 C-0.67 30.82 -0.34 15.64 0 0 Z " fill="#7F603E" transform="translate(204,221)"/>
<path d="M0 0 C0.33 0.66 0.66 1.32 1 2 C1.66 2 2.32 2 3 2 C3 5 3 8 3 11 C-1.43458973 9.6062718 -3.87378374 7.39417765 -7 4 C-4.69 2.68 -2.38 1.36 0 0 Z " fill="#C78846" transform="translate(291,210)"/>
<path d="M0 0 C3.15998545 1.05332848 5.14745336 2.68060155 7.625 4.875 C6.45130859 4.85759766 6.45130859 4.85759766 5.25390625 4.83984375 C4.24199219 4.83082031 3.23007813 4.82179687 2.1875 4.8125 C0.67349609 4.79509766 0.67349609 4.79509766 -0.87109375 4.77734375 C-3.31521067 4.58887324 -3.31521067 4.58887324 -4.375 5.875 C-6.37458364 5.91580783 -8.37545254 5.91754356 -10.375 5.875 C-2.93842669 -0.15465404 -2.93842669 -0.15465404 0 0 Z " fill="#CF9759" transform="translate(250.375,149.125)"/>
<path d="M0 0 C-3.68749714 4.26366857 -7.36749089 6.90261254 -13 8 C-15.24609375 7.5703125 -15.24609375 7.5703125 -17 7 C-15.25447936 5.84735447 -13.50339804 4.70312673 -11.75 3.5625 C-10.77546875 2.92441406 -9.8009375 2.28632813 -8.796875 1.62890625 C-3.2283871 -1.61419355 -3.2283871 -1.61419355 0 0 Z " fill="#CB9456" transform="translate(213,174)"/>
<path d="M0 0 C0 0.66 0 1.32 0 2 C0.99 2.33 1.98 2.66 3 3 C2.67 3.99 2.34 4.98 2 6 C-1.58376476 7.31404708 -4.37316559 7.2089448 -8 6 C-6.72879117 2.18637351 -4.19078006 0 0 0 Z " fill="#8E9092" transform="translate(468,468)"/>
<path d="M0 0 C0.33 0.66 0.66 1.32 1 2 C0.34 2.66 -0.32 3.32 -1 4 C-1.33 4.99 -1.66 5.98 -2 7 C-2.33 6.67 -2.66 6.34 -3 6 C-3.53625 6.680625 -4.0725 7.36125 -4.625 8.0625 C-7 10 -7 10 -10.25 9.75 C-11.61125 9.37875 -11.61125 9.37875 -13 9 C-12.67 8.34 -12.34 7.68 -12 7 C-11.01 7 -10.02 7 -9 7 C-9 6.34 -9 5.68 -9 5 C-8.01 5 -7.02 5 -6 5 C-6 4.34 -6 3.68 -6 3 C-4.02 2.01 -2.04 1.02 0 0 Z " fill="#D2D6D7" transform="translate(246,308)"/>
<path d="M0 0 C1 2 2 4 3 6 C2.01 6.33 1.02 6.66 0 7 C0.33 7.66 0.66 8.32 1 9 C-3.67692308 7.52307692 -3.67692308 7.52307692 -5.3125 4.875 C-5.539375 4.25625 -5.76625 3.6375 -6 3 C-2.25 0 -2.25 0 0 0 Z " fill="#C3C6C0" transform="translate(220,325)"/>
<path d="M0 0 C0 2 0 2 -2.3125 4.4375 C-6.58098379 7.91400005 -11.72459987 8.84541954 -17 10 C-14.38772848 7.04185281 -11.33429693 5.28123892 -7.9375 3.3125 C-6.87402344 2.68988281 -5.81054688 2.06726563 -4.71484375 1.42578125 C-2 0 -2 0 0 0 Z " fill="#C08C56" transform="translate(196,182)"/>
<path d="M0 0 C6.4 0.49230769 6.4 0.49230769 9.4375 3.0625 C10.2109375 4.0215625 10.2109375 4.0215625 11 5 C11.33 4.01 11.66 3.02 12 2 C12 3.98 12 5.96 12 8 C7.69235185 6.43358249 3.93828536 4.31663844 0 2 C0 1.34 0 0.68 0 0 Z " fill="#C18F55" transform="translate(321,236)"/>
<path d="M0 0 C0.66 0.66 1.32 1.32 2 2 C1.67 2.99 1.34 3.98 1 5 C1.66 5.33 2.32 5.66 3 6 C3 6.33 3 6.66 3 7 C4.65 7.33 6.3 7.66 8 8 C8 8.99 8 9.98 8 11 C6.35 11 4.7 11 3 11 C2.7525 10.21625 2.505 9.4325 2.25 8.625 C0.84610901 5.67682892 -0.00675737 5.0975223 -3 4 C-2.67 3.01 -2.34 2.02 -2 1 C-1.34 1.33 -0.68 1.66 0 2 C0 1.34 0 0.68 0 0 Z " fill="#B87132" transform="translate(195,256)"/>
<path d="M0 0 C2.64 0.66 5.28 1.32 8 2 C8 2.66 8 3.32 8 4 C8.99 4 9.98 4 11 4 C11 4.66 11 5.32 11 6 C11.66 6 12.32 6 13 6 C13.33 7.32 13.66 8.64 14 10 C10.19136032 8.65378455 7.34590149 6.94641263 4.1875 4.4375 C3.39730469 3.81746094 2.60710937 3.19742188 1.79296875 2.55859375 C0.90544922 1.78708984 0.90544922 1.78708984 0 1 C0 0.67 0 0.34 0 0 Z " fill="#AA7742" transform="translate(270,205)"/>
<path d="M0 0 C0.7425 0.2475 1.485 0.495 2.25 0.75 C0.99523029 4.51430913 -0.44422618 4.80044108 -3.75 6.75 C-3.75 7.41 -3.75 8.07 -3.75 8.75 C-4.41 8.75 -5.07 8.75 -5.75 8.75 C-6.5 6.5 -6.5 6.5 -6.75 3.75 C-4.64876805 0.67896869 -3.78845323 -0.34440484 0 0 Z " fill="#C27634" transform="translate(269.75,193.25)"/>
<path d="M0 0 C4.29 2.31 8.58 4.62 13 7 C8.03429151 8.24142712 5.84452938 7.37261666 1 6 C1 5.01 1 4.02 1 3 C-0.32 2.67 -1.64 2.34 -3 2 C-2.01 1.34 -1.02 0.68 0 0 Z " fill="#BC844B" transform="translate(319,190)"/>
<path d="M0 0 C5.56451613 -0.37096774 5.56451613 -0.37096774 7.6875 1.4375 C8.120625 1.953125 8.55375 2.46875 9 3 C9.99 3.33 10.98 3.66 12 4 C12.6875 6.0625 12.6875 6.0625 13 8 C8.27626146 6.37621488 4.05818166 3.89006982 0 1 C0 0.67 0 0.34 0 0 Z " fill="#8E6138" transform="translate(169,248)"/>
<path d="M0 0 C6.23809641 3.00400134 12.20978654 6.19916156 18 10 C17.01 10.495 17.01 10.495 16 11 C13.3984375 10.00390625 13.3984375 10.00390625 10.375 8.5625 C9.37210937 8.08941406 8.36921875 7.61632812 7.3359375 7.12890625 C6.56507813 6.75636719 5.79421875 6.38382813 5 6 C5 5.34 5 4.68 5 4 C4.360625 3.896875 3.72125 3.79375 3.0625 3.6875 C2.381875 3.460625 1.70125 3.23375 1 3 C0.67 2.01 0.34 1.02 0 0 Z " fill="#A77644" transform="translate(300,179)"/>
<path d="M0 0 C3.76119476 0.62393651 6.18960042 2.34773715 9.25 4.5625 C10.14203125 5.20316406 11.0340625 5.84382813 11.953125 6.50390625 C12.96632812 7.24447266 12.96632812 7.24447266 14 8 C12.68 8.33 11.36 8.66 10 9 C9.773125 8.360625 9.54625 7.72125 9.3125 7.0625 C8.16952088 4.74737559 8.16952088 4.74737559 5.5625 4.375 C4.716875 4.25125 3.87125 4.1275 3 4 C2.01 3.34 1.02 2.68 0 2 C0 1.34 0 0.68 0 0 Z " fill="#AA7B4D" transform="translate(211,283)"/>
<path d="M0 0 C0.99 0.33 1.98 0.66 3 1 C2.8125 2.8125 2.8125 2.8125 2 5 C-2.17857143 8 -2.17857143 8 -5 8 C-5 6.68 -5 5.36 -5 4 C-4.360625 3.71125 -3.72125 3.4225 -3.0625 3.125 C-0.84793921 2.17176549 -0.84793921 2.17176549 0 0 Z " fill="#AF824F" transform="translate(283,169)"/>
<path d="M0 0 C1.32 0.33 2.64 0.66 4 1 C-2.75 5 -2.75 5 -5 5 C-5 5.66 -5 6.32 -5 7 C-6.32 7.33 -7.64 7.66 -9 8 C-8.6875 6.125 -8.6875 6.125 -8 4 C-4.77208445 1.8480563 -3.71599191 1.79913557 0 2 C0 1.34 0 0.68 0 0 Z " fill="#9D6B38" transform="translate(231,307)"/>
<path d="M0 0 C0.66 0.33 1.32 0.66 2 1 C1.34 1.66 0.68 2.32 0 3 C0.99 3.66 1.98 4.32 3 5 C2.37351563 5.19335938 1.74703125 5.38671875 1.1015625 5.5859375 C0.28429687 5.84632813 -0.53296875 6.10671875 -1.375 6.375 C-2.18710938 6.63023437 -2.99921875 6.88546875 -3.8359375 7.1484375 C-6.16459185 7.89854283 -6.16459185 7.89854283 -8 10 C-7.67 8.68 -7.34 7.36 -7 6 C-6.34 6 -5.68 6 -5 6 C-4.9175 5.38125 -4.835 4.7625 -4.75 4.125 C-4 2 -4 2 -2.0625 0.6875 C-1.381875 0.460625 -0.70125 0.23375 0 0 Z " fill="#CC8C4A" transform="translate(177,192)"/>
<path d="M0 0 C-2.16614803 2.30874711 -4.39206608 4.05290181 -7.0625 5.75 C-8.10083984 6.42289063 -8.10083984 6.42289063 -9.16015625 7.109375 C-9.76730469 7.40328125 -10.37445313 7.6971875 -11 8 C-11.66 7.67 -12.32 7.34 -13 7 C-12.67 6.34 -12.34 5.68 -12 5 C-11.01 5 -10.02 5 -9 5 C-8.8453125 4.0409375 -8.8453125 4.0409375 -8.6875 3.0625 C-8.460625 2.381875 -8.23375 1.70125 -8 1 C-5.07175348 0.02391783 -3.04386724 -0.08226668 0 0 Z " fill="#B28653" transform="translate(278,177)"/>
<path d="M0 0 C-0.625 2.375 -0.625 2.375 -2 5 C-5.79707677 6.81599324 -8.02778658 7.18650531 -12 6 C-10.37829621 4.99466333 -8.75252763 3.99588093 -7.125 3 C-5.76761719 2.1646875 -5.76761719 2.1646875 -4.3828125 1.3125 C-2 0 -2 0 0 0 Z " fill="#C29157" transform="translate(232,160)"/>
<path d="M0 0 C3.37503669 1.1858237 5.64722731 2.27573689 8 5 C7.195625 5.12375 6.39125 5.2475 5.5625 5.375 C4.2940625 5.684375 4.2940625 5.684375 3 6 C2.67 6.66 2.34 7.32 2 8 C1.34 5.36 0.68 2.72 0 0 Z " fill="#C6894D" transform="translate(203,278)"/>
<path d="M0 0 C1.79398267 0.95399078 3.58511655 1.91334026 5.375 2.875 C6.37273437 3.40867188 7.37046875 3.94234375 8.3984375 4.4921875 C11 6 11 6 13 8 C11.35 8 9.7 8 8 8 C7.67 7.34 7.34 6.68 7 6 C5.68 6 4.36 6 3 6 C1.25 4.6875 1.25 4.6875 0 3 C0 2.01 0 1.02 0 0 Z " fill="#A3A4A3" transform="translate(306,237)"/>
<path d="M0 0 C0.68707555 2.49064888 1 4.37886292 1 7 C-0.875 7.625 -0.875 7.625 -3 8 C-3.66 7.34 -4.32 6.68 -5 6 C-4.875 4 -4.875 4 -4 2 C-1.9375 0.75 -1.9375 0.75 0 0 Z " fill="#CF914B" transform="translate(219,167)"/>
<path d="M0 0 C4.30764815 1.56641751 8.06171464 3.68336156 12 6 C11.01 6.66 10.02 7.32 9 8 C6.375 7.25 6.375 7.25 4 6 C3.67 5.34 3.34 4.68 3 4 C2.01 3.67 1.02 3.34 0 3 C0 2.01 0 1.02 0 0 Z " fill="#B08350" transform="translate(268,160)"/>
<path d="M0 0 C0.33 0.66 0.66 1.32 1 2 C1.99 2.33 2.98 2.66 4 3 C4 4.32 4 5.64 4 7 C1.03 6.505 1.03 6.505 -2 6 C-2.33 5.01 -2.66 4.02 -3 3 C-2.01 2.01 -1.02 1.02 0 0 Z " fill="#E6E6E7" transform="translate(235,336)"/>
<path d="M0 0 C0.66 0.33 1.32 0.66 2 1 C1.26532365 3.82914839 0.46581614 6.46032588 -1 9 C-4.1875 10 -4.1875 10 -7 10 C-6.34 8.35 -5.68 6.7 -5 5 C-4.34 5.33 -3.68 5.66 -3 6 C-2.67 4.68 -2.34 3.36 -2 2 C-1.34 2 -0.68 2 0 2 C0 1.34 0 0.68 0 0 Z " fill="#EBEBEA" transform="translate(247,308)"/>
<path d="M0 0 C2.31 0 4.62 0 7 0 C7.66 1.98 8.32 3.96 9 6 C7.68 6 6.36 6 5 6 C5 5.01 5 4.02 5 3 C4.360625 2.87625 3.72125 2.7525 3.0625 2.625 C2.381875 2.41875 1.70125 2.2125 1 2 C0.67 1.34 0.34 0.68 0 0 Z " fill="#C17631" transform="translate(176,249)"/>
<path d="M0 0 C-0.33 0.99 -0.66 1.98 -1 3 C-1.33 2.67 -1.66 2.34 -2 2 C-2.33 2.66 -2.66 3.32 -3 4 C-4.65 3.67 -6.3 3.34 -8 3 C-8.33 2.01 -8.66 1.02 -9 0 C-5.52176885 -1.15941038 -3.54104422 -0.70820884 0 0 Z " fill="#E3984E" transform="translate(301,217)"/>
<path d="M0 0 C-1.36983503 3.16115776 -1.9890638 3.9927092 -5 6 C-5 5.01 -5 4.02 -5 3 C-6.32 3 -7.64 3 -9 3 C-9 2.34 -9 1.68 -9 1 C-5.92677456 0.08941469 -3.19902639 -0.08886184 0 0 Z " fill="#CA7F35" transform="translate(293,181)"/>
<path d="M0 0 C0.66 0.33 1.32 0.66 2 1 C1.01 2.485 1.01 2.485 0 4 C-1.32 4 -2.64 4 -4 4 C-4 4.66 -4 5.32 -4 6 C-6.375 7.0625 -6.375 7.0625 -9 8 C-9.66 7.67 -10.32 7.34 -11 7 C-9.21475351 5.80286983 -7.4215972 4.61752721 -5.625 3.4375 C-4.62726563 2.77621094 -3.62953125 2.11492187 -2.6015625 1.43359375 C-1.74304688 0.96050781 -0.88453125 0.48742187 0 0 Z " fill="#B0B2B2" transform="translate(293,279)"/>
<path d="M0 0 C2.31 0.66 4.62 1.32 7 2 C7 3.32 7 4.64 7 6 C4.625 5.8125 4.625 5.8125 2 5 C0.6875 2.4375 0.6875 2.4375 0 0 Z " fill="#EAEBED" transform="translate(244,344)"/>
<path d="M0 0 C2.97 0.495 2.97 0.495 6 1 C5.67 2.98 5.34 4.96 5 7 C3.35 6.67 1.7 6.34 0 6 C0 4.02 0 2.04 0 0 Z " fill="#EB9B49" transform="translate(176,265)"/>
<path d="M0 0 C1.32 0.66 2.64 1.32 4 2 C3.67 3.65 3.34 5.3 3 7 C2.01 7 1.02 7 0 7 C-0.38133299 5.0085944 -0.71325582 3.00720923 -1 1 C-0.67 0.67 -0.34 0.34 0 0 Z " fill="#E99846" transform="translate(172,296)"/>
<path d="M0 0 C1.98 0.66 3.96 1.32 6 2 C6 2.99 6 3.98 6 5 C5.01 5.33 4.02 5.66 3 6 C2.01 5.34 1.02 4.68 0 4 C0 2.68 0 1.36 0 0 Z " fill="#CA8C48" transform="translate(196,274)"/>
<path d="M0 0 C0.66 0 1.32 0 2 0 C2 0.66 2 1.32 2 2 C2.99 2.33 3.98 2.66 5 3 C4.01 3.99 3.02 4.98 2 6 C0.02 5.34 -1.96 4.68 -4 4 C-3.34 3.525625 -2.68 3.05125 -2 2.5625 C-1.34 2.046875 -0.68 1.53125 0 1 C0 0.67 0 0.34 0 0 Z " fill="#CE9045" transform="translate(298,218)"/>
<path d="M0 0 C0.99 0.33 1.98 0.66 3 1 C-1.30769231 5.92307692 -1.30769231 5.92307692 -4.8125 6.3125 C-5.8953125 6.1578125 -5.8953125 6.1578125 -7 6 C-2.25 1.125 -2.25 1.125 0 0 Z " fill="#E39F56" transform="translate(183,190)"/>
<path d="M0 0 C4.40114397 0.50298788 6.71195019 2.08772731 10 5 C8.02 5 6.04 5 4 5 C3.67 3.68 3.34 2.36 3 1 C1.68 1.33 0.36 1.66 -1 2 C-0.67 1.34 -0.34 0.68 0 0 Z " fill="#A58052" transform="translate(248,149)"/>
<path d="M0 0 C1.9375 0.6875 1.9375 0.6875 4 2 C4.75 4.625 4.75 4.625 5 7 C2.525 6.01 2.525 6.01 0 5 C0 3.35 0 1.7 0 0 Z " fill="#E7A053" transform="translate(308,224)"/>
<path d="M0 0 C2.31 0 4.62 0 7 0 C7.66 1.98 8.32 3.96 9 6 C5.06326356 4.68775452 2.77280706 3.08089673 0 0 Z " fill="#B88850" transform="translate(300,224)"/>
<path d="M0 0 C2.97 0.495 2.97 0.495 6 1 C6 1.99 6 2.98 6 4 C4.35 4 2.7 4 1 4 C0.67 2.68 0.34 1.36 0 0 Z " fill="#D38334" transform="translate(295,180)"/>
<path d="M0 0 C-1.375 1.5 -1.375 1.5 -3 3 C-3.66 3 -4.32 3 -5 3 C-5.66 3.66 -6.32 4.32 -7 5 C-7.99 5 -8.98 5 -10 5 C-9.67 3.68 -9.34 2.36 -9 1 C-2.25 -1.125 -2.25 -1.125 0 0 Z " fill="#EAA050" transform="translate(249,154)"/>
<path d="M0 0 C0.66 0.33 1.32 0.66 2 1 C1.67 2.32 1.34 3.64 1 5 C0.34 5 -0.32 5 -1 5 C-1.66 5.66 -2.32 6.32 -3 7 C-3.66 5.68 -4.32 4.36 -5 3 C-2.625 1.4375 -2.625 1.4375 0 0 Z " fill="#C9CCCC" transform="translate(231,317)"/>
<path d="M0 0 C1.32 0.33 2.64 0.66 4 1 C3.67 1.99 3.34 2.98 3 4 C0.4375 5.1875 0.4375 5.1875 -2 6 C-1.34 4.02 -0.68 2.04 0 0 Z " fill="#C3C8C8" transform="translate(314,308)"/>
<path d="M0 0 C0.99 0.33 1.98 0.66 3 1 C2.67 2.32 2.34 3.64 2 5 C-0.31 5.33 -2.62 5.66 -5 6 C-5 5.34 -5 4.68 -5 4 C-3.68 4 -2.36 4 -1 4 C-0.67 2.68 -0.34 1.36 0 0 Z " fill="#CA782F" transform="translate(229,304)"/>
<path d="M0 0 C2.31 0 4.62 0 7 0 C1.47158404 4.76058041 1.47158404 4.76058041 -2 5 C-2.66 4.34 -3.32 3.68 -4 3 C-2.35 3 -0.7 3 1 3 C0.67 2.01 0.34 1.02 0 0 Z " fill="#C48D54" transform="translate(258,185)"/>
<path d="M0 0 C0 0.66 0 1.32 0 2 C-3.3 2.33 -6.6 2.66 -10 3 C-10 2.34 -10 1.68 -10 1 C-6.21812119 -0.83691257 -4.05431692 -1.15837626 0 0 Z " fill="#EC9E4C" transform="translate(206,181)"/>
<path d="M0 0 C3.99500618 1.3697164 6.80009492 3.25722422 10 6 C7.03 5.505 7.03 5.505 4 5 C4 4.34 4 3.68 4 3 C2.68 3 1.36 3 0 3 C0 2.01 0 1.02 0 0 Z " fill="#AC8759" transform="translate(167,256)"/>
<path d="M0 0 C0.66 0 1.32 0 2 0 C1.8125 2.3125 1.8125 2.3125 1 5 C-1.5625 6.8125 -1.5625 6.8125 -4 8 C-2.87548273 5.0280615 -1.77706209 2.66559313 0 0 Z " fill="#86888F" transform="translate(472,460)"/>
<path d="M0 0 C1.32 0.33 2.64 0.66 4 1 C4 1.66 4 2.32 4 3 C2.35 3.33 0.7 3.66 -1 4 C-1 4.66 -1 5.32 -1 6 C-1.99 5.67 -2.98 5.34 -4 5 C-3.34 5 -2.68 5 -2 5 C-1.34 3.35 -0.68 1.7 0 0 Z " fill="#E5A051" transform="translate(252,187)"/>
<path d="M0 0 C0.33 0.66 0.66 1.32 1 2 C0.34 2.66 -0.32 3.32 -1 4 C-1.33 4.99 -1.66 5.98 -2 7 C-3.32 6.34 -4.64 5.68 -6 5 C-6 4.34 -6 3.68 -6 3 C-4.02 2.01 -2.04 1.02 0 0 Z " fill="#C0C1C1" transform="translate(246,308)"/>
<path d="M0 0 C2.31 0 4.62 0 7 0 C5.75 2 5.75 2 4 4 C2.68 4 1.36 4 0 4 C0 2.68 0 1.36 0 0 Z " fill="#E9A04D" transform="translate(241,193)"/>
<path d="M0 0 C0.99 0 1.98 0 3 0 C2.67 1.32 2.34 2.64 2 4 C0.125 4.625 0.125 4.625 -2 5 C-2.66 4.34 -3.32 3.68 -4 3 C-3.01 2.34 -2.02 1.68 -1 1 C-0.67 0.67 -0.34 0.34 0 0 Z " fill="#C88D41" transform="translate(321,232)"/>
<path d="M0 0 C1.32 0.33 2.64 0.66 4 1 C-1.75 5 -1.75 5 -4 5 C-4.33 4.01 -4.66 3.02 -5 2 C-3.35 2 -1.7 2 0 2 C0 1.34 0 0.68 0 0 Z " fill="#AA7F4D" transform="translate(241,197)"/>
<path d="M0 0 C1.98 0.495 1.98 0.495 4 1 C3.67 1.99 3.34 2.98 3 4 C2.34 4 1.68 4 1 4 C1 4.66 1 5.32 1 6 C0.34 6 -0.32 6 -1 6 C-0.67 4.02 -0.34 2.04 0 0 Z " fill="#ED9C49" transform="translate(273,166)"/>
</svg>
